<?xml version="1.0" standalone="no"?>
<!DOCTYPE svg PUBLIC "-//W3C//DTD SVG 20010904//EN"
 "http://www.w3.org/TR/2001/REC-SVG-20010904/DTD/svg10.dtd">
<svg version="1.0" xmlns="http://www.w3.org/2000/svg"
 width="456.000000pt" height="456.000000pt" viewBox="0 0 456.000000 456.000000"
 preserveAspectRatio="xMidYMid meet">
<metadata>
Created by potrace 1.14, written by Peter Selinger 2001-2017
</metadata>
<g transform="translate(0.000000,456.000000) scale(0.100000,-0.100000)"
fill="#000000" stroke="none">
<path d="M2138 3875 c-1 -1 -32 -6 -67 -9 -36 -4 -67 -9 -70 -10 -3 -2 -24 -7
-46 -10 -102 -16 -250 -69 -388 -137 -305 -151 -558 -402 -710 -704 -62 -124
-123 -301 -141 -410 -21 -124 -26 -168 -26 -227 l0 -68 152 104 c150 102 153
104 161 147 33 179 149 419 272 564 457 538 1237 626 1795 201 74 -56 189
-166 189 -181 1 -5 -34 -33 -77 -62 -42 -28 -233 -157 -424 -286 l-348 -234
-57 20 c-110 37 -251 3 -322 -79 -58 -65 -84 -130 -85 -214 -1 -67 3 -83 32
-143 79 -160 268 -225 425 -145 98 49 165 154 169 262 l2 56 71 48 c38 27 241
164 451 304 517 348 567 383 571 395 4 10 -99 173 -128 203 -8 8 -30 35 -50
60 -136 169 -354 329 -579 427 -99 43 -270 95 -353 107 -27 4 -59 10 -70 12
-25 6 -343 14 -349 9z"/>
<path d="M2110 3361 c-124 -18 -310 -79 -372 -122 -14 -11 -29 -19 -33 -19
-19 0 -159 -108 -218 -167 -197 -200 -304 -434 -324 -708 -3 -44 -6 -80 -7
-81 0 0 -93 -63 -206 -139 -113 -76 -212 -144 -221 -152 -15 -12 -14 -20 6
-96 28 -102 54 -179 65 -191 12 -12 667 428 663 444 -11 39 -13 179 -4 240 15
103 17 114 41 178 84 227 267 405 497 484 105 37 146 43 273 41 128 -2 233
-27 345 -83 l80 -39 128 85 128 85 -42 34 c-98 77 -285 161 -424 190 -90 19
-292 28 -375 16z"/>
<path d="M3631 2810 c-102 -70 -122 -87 -118 -104 3 -12 14 -57 26 -101 32
-124 40 -198 37 -355 -6 -241 -62 -439 -182 -636 -207 -343 -536 -558 -947
-620 -91 -14 -308 -7 -406 12 -30 6 -47 -3 -186 -97 -85 -57 -151 -107 -147
-110 19 -17 203 -67 332 -91 89 -16 345 -18 445 -3 156 23 167 26 289 66 402
133 731 412 920 779 76 148 119 275 162 480 14 70 13 431 -2 510 -20 106 -50
219 -77 291 l-23 61 -123 -82z"/>
<path d="M3175 2508 l-120 -81 0 -146 c0 -122 -4 -159 -23 -226 -24 -84 -91
-221 -133 -270 -101 -120 -173 -178 -294 -236 -116 -56 -208 -77 -345 -77
-141 0 -241 22 -359 79 l-84 41 -316 -212 c-174 -117 -322 -218 -329 -225 -10
-9 -1 -22 50 -66 69 -60 162 -129 173 -129 6 0 77 47 379 250 l69 47 51 -19
c81 -31 230 -58 329 -60 87 -2 233 8 247 17 4 2 21 7 40 10 40 7 149 45 215
75 92 42 218 132 300 214 108 109 137 148 209 279 22 41 96 238 95 252 -1 6
11 80 18 110 20 96 -15 456 -45 455 -4 0 -61 -37 -127 -82z"/>
<path d="M1475 1922 c-22 -16 -150 -102 -285 -192 -135 -90 -260 -175 -278
-188 l-32 -25 25 -45 c36 -65 128 -192 139 -192 5 0 17 6 25 13 9 8 149 103
311 212 162 109 296 198 297 200 2 1 -21 31 -50 67 -28 37 -65 91 -80 122 -16
31 -29 56 -30 56 -1 0 -20 -13 -42 -28z"/>
</g>
</svg>
